<svg width="18" height="18" viewBox="0 0 18 18" fill="none" xmlns="http://www.w3.org/2000/svg">
<path d="M9.5625 2.25V4.5C9.5625 4.64918 9.50324 4.79226 9.39775 4.89775C9.29226 5.00324 9.14918 5.0625 9 5.0625C8.85082 5.0625 8.70774 5.00324 8.60225 4.89775C8.49676 4.79226 8.4375 4.64918 8.4375 4.5V2.25C8.4375 2.10082 8.49676 1.95774 8.60225 1.85225C8.70774 1.74676 8.85082 1.6875 9 1.6875C9.14918 1.6875 9.29226 1.74676 9.39775 1.85225C9.50324 1.95774 9.5625 2.10082 9.5625 2.25V2.25ZM15.75 8.4375H13.5C13.3508 8.4375 13.2077 8.49676 13.1023 8.60225C12.9968 8.70774 12.9375 8.85082 12.9375 9C12.9375 9.14918 12.9968 9.29226 13.1023 9.39775C13.2077 9.50324 13.3508 9.5625 13.5 9.5625H15.75C15.8992 9.5625 16.0423 9.50324 16.1477 9.39775C16.2532 9.29226 16.3125 9.14918 16.3125 9C16.3125 8.85082 16.2532 8.70774 16.1477 8.60225C16.0423 8.49676 15.8992 8.4375 15.75 8.4375ZM12.5798 11.7842C12.4743 11.6787 12.3312 11.6194 12.182 11.6194C12.0328 11.6194 11.8897 11.6787 11.7842 11.7842C11.6787 11.8897 11.6194 12.0328 11.6194 12.182C11.6194 12.3312 11.6787 12.4743 11.7842 12.5798L13.3752 14.1707C13.4807 14.2762 13.6238 14.3355 13.7729 14.3355C13.9221 14.3355 14.0652 14.2762 14.1707 14.1707C14.2762 14.0652 14.3355 13.9221 14.3355 13.7729C14.3355 13.6237 14.2762 13.4807 14.1707 13.3752L12.5798 11.7842ZM9 12.9375C8.85082 12.9375 8.70775 12.9968 8.60226 13.1023C8.49677 13.2077 8.43751 13.3508 8.4375 13.5V15.75C8.4375 15.8992 8.49676 16.0423 8.60225 16.1477C8.70774 16.2532 8.85082 16.3125 9 16.3125C9.14918 16.3125 9.29226 16.2532 9.39775 16.1477C9.50324 16.0423 9.5625 15.8992 9.5625 15.75V13.5C9.56249 13.3508 9.50323 13.2077 9.39774 13.1023C9.29225 12.9968 9.14918 12.9375 9 12.9375V12.9375ZM5.42024 11.7842L3.82928 13.3752C3.72379 13.4807 3.66452 13.6238 3.66452 13.7729C3.66452 13.9221 3.72379 14.0652 3.82928 14.1707C3.93478 14.2762 4.07786 14.3355 4.22706 14.3355C4.37625 14.3355 4.51934 14.2762 4.62483 14.1707L6.21579 12.5798C6.32129 12.4743 6.38055 12.3312 6.38055 12.182C6.38055 12.0328 6.32129 11.8897 6.21579 11.7842C6.11029 11.6787 5.96721 11.6195 5.81802 11.6195C5.66882 11.6195 5.52574 11.6787 5.42024 11.7842V11.7842ZM5.0625 9C5.06249 8.85082 5.00323 8.70775 4.89774 8.60226C4.79225 8.49677 4.64918 8.43751 4.5 8.4375H2.25C2.10082 8.4375 1.95774 8.49676 1.85225 8.60225C1.74676 8.70774 1.6875 8.85082 1.6875 9C1.6875 9.14918 1.74676 9.29226 1.85225 9.39775C1.95774 9.50324 2.10082 9.5625 2.25 9.5625H4.5C4.64918 9.56249 4.79225 9.50323 4.89774 9.39774C5.00323 9.29225 5.06249 9.14918 5.0625 9ZM4.62483 3.82928C4.51934 3.72379 4.37625 3.66452 4.22706 3.66452C4.07786 3.66452 3.93478 3.72379 3.82928 3.82928C3.72379 3.93478 3.66452 4.07786 3.66452 4.22706C3.66452 4.37625 3.72379 4.51934 3.82928 4.62483L5.42025 6.21579C5.52581 6.32097 5.66879 6.37996 5.81781 6.37983C5.96682 6.37969 6.1097 6.32043 6.21507 6.21506C6.32043 6.10969 6.37969 5.96682 6.37983 5.8178C6.37996 5.66879 6.32097 5.5258 6.21579 5.42024L4.62483 3.82928Z" fill="white"/>
</svg>
